<svg xmlns="http://www.w3.org/2000/svg" version="1.1" xmlns:xlink="http://www.w3.org/1999/xlink" xmlns:svgjs="http://svgjs.dev/svgjs" width="2000" height="1247" viewBox="0 0 2000 1247"><g transform="matrix(1,0,0,1,-1.2121212121212466,0.5906842105263195)"><svg viewBox="0 0 396 247" data-background-color="#ffffff" preserveAspectRatio="xMidYMid meet" height="1247" width="2000" xmlns="http://www.w3.org/2000/svg" xmlns:xlink="http://www.w3.org/1999/xlink"><g id="tight-bounds" transform="matrix(1,0,0,1,0.2400000000000091,-0.09999999999999432)"><svg viewBox="0 0 395.52 247.2" height="247.2" width="395.52"><g><svg></svg></g><g><svg viewBox="0 0 395.52 247.2" height="247.2" width="395.52"><mask id="3aacba4b-8075-43de-9aa3-bd1f46df6d67"><rect width="395.52" height="247.2" fill="white"></rect><g transform="matrix(1,0,0,1,0,53.33967698782995)" id="clone"><svg viewBox="0 0 395.52 140.5206460243401" height="140.5206460243401" width="395.52"><g><svg viewBox="0 0 395.52 140.5206460243401" height="140.5206460243401" width="395.52"><g><svg viewBox="0 0 395.52 140.5206460243401" height="140.5206460243401" width="395.52"><g><svg viewBox="0 0 395.52 140.5206460243401" height="140.5206460243401" width="395.52"><g id="SvgjsG1146"><svg viewBox="0 0 395.52 140.5206460243401" height="140.5206460243401" width="395.52" id="SvgjsSvg1145"><g><svg viewBox="0 0 395.52 140.5206460243401" height="140.5206460243401" width="395.52"><g transform="matrix(1,0,0,1,0,0)"><svg width="395.52" viewBox="-3.560000002384186 -40.5 150.63999938964844 54.16999816894531" height="140.5206460243401" data-palette-color="#39cccc"><path d="M3.32-26.42L7.64-26.42 7.64 3.32Q7.57 10.67 1.83 10.67L1.83 10.67Q0.51 10.67-0.54 10.23L-0.54 10.23-0.56 6.62Q0.1 6.81 1.12 6.81L1.12 6.81Q2.22 6.81 2.77 5.99 3.32 5.18 3.32 3.15L3.32 3.15 3.32-26.42ZM7.84-33.42L7.84-33.42Q7.84-32.32 7.23-31.59 6.62-30.86 5.37-30.86L5.37-30.86Q4.15-30.86 3.55-31.59 2.95-32.32 2.95-33.42 2.95-34.52 3.55-35.28 4.15-36.04 5.37-36.04 6.59-36.04 7.21-35.27 7.84-34.5 7.84-33.42ZM13.5-11.55L13.5-14.43Q13.5-20.19 16.29-23.55 19.09-26.9 23.68-26.9 28.27-26.9 31.06-23.63 33.86-20.36 33.93-14.72L33.93-14.72 33.93-11.94Q33.93-6.2 31.15-2.86 28.37 0.49 23.73 0.49L23.73 0.49Q19.14 0.49 16.37-2.76 13.6-6.01 13.5-11.55L13.5-11.55ZM17.82-14.45L17.82-11.94Q17.82-7.86 19.42-5.53 21.02-3.2 23.73-3.2L23.73-3.2Q29.44-3.2 29.61-11.45L29.61-11.45 29.61-14.43Q29.61-18.48 28-20.84 26.39-23.19 23.68-23.19L23.68-23.19Q21.02-23.19 19.42-20.84 17.82-18.48 17.82-14.45L17.82-14.45ZM58.64-14.55L58.64-11.94Q58.64-5.76 56.42-2.64 54.19 0.49 49.97 0.49L49.97 0.49Q45.77 0.49 43.67-3.13L43.67-3.13 43.45 0 39.52 0 39.52-37.5 43.82-37.5 43.82-23.51Q45.94-26.9 49.92-26.9L49.92-26.9Q54.27-26.9 56.44-23.83 58.61-20.75 58.64-14.55L58.64-14.55ZM54.34-11.74L54.34-14.4Q54.34-19.09 53.03-21.08 51.73-23.07 48.8-23.07L48.8-23.07Q45.45-23.07 43.82-19.46L43.82-19.46 43.82-6.88Q45.43-3.32 48.85-3.32L48.85-3.32Q51.78-3.32 53.05-5.37 54.32-7.42 54.34-11.74L54.34-11.74ZM76.99-6.76L76.99-6.76Q76.99-8.15 75.94-9.16 74.89-10.16 71.89-11.5L71.89-11.5Q68.4-12.94 66.97-13.96 65.54-14.99 64.84-16.3 64.13-17.6 64.13-19.41L64.13-19.41Q64.13-22.63 66.48-24.77 68.84-26.9 72.5-26.9L72.5-26.9Q76.36-26.9 78.7-24.66 81.05-22.41 81.05-18.9L81.05-18.9 76.75-18.9Q76.75-20.68 75.55-21.94 74.36-23.19 72.5-23.19L72.5-23.19Q70.6-23.19 69.51-22.2 68.43-21.22 68.43-19.56L68.43-19.56Q68.43-18.24 69.22-17.43 70.01-16.63 73.04-15.31L73.04-15.31Q77.85-13.43 79.58-11.63 81.32-9.84 81.32-7.08L81.32-7.08Q81.32-3.64 78.95-1.57 76.58 0.49 72.6 0.49L72.6 0.49Q68.47 0.49 65.91-1.88 63.35-4.25 63.35-7.89L63.35-7.89 67.69-7.89Q67.77-5.69 69.04-4.44 70.31-3.2 72.6-3.2L72.6-3.2Q74.75-3.2 75.87-4.16 76.99-5.13 76.99-6.76ZM100.5 0L100.41-2.32Q98.26 0.49 94.13 0.49L94.13 0.49Q90.54 0.49 88.71-1.99 86.88-4.47 86.86-9.2L86.86-9.2 86.86-26.42 91.15-26.42 91.15-9.52Q91.15-3.34 94.86-3.34L94.86-3.34Q98.79-3.34 100.28-6.86L100.28-6.86 100.28-26.42 104.6-26.42 104.6 0 100.5 0ZM121.98-26.56L122.01-22.36Q121.11-22.53 120.06-22.53L120.06-22.53Q116.74-22.53 115.42-18.9L115.42-18.9 115.42 0 111.1 0 111.1-26.42 115.3-26.42 115.37-23.73Q117.1-26.9 120.28-26.9L120.28-26.9Q121.3-26.9 121.98-26.56L121.98-26.56ZM135.29 0.49L135.29 0.49Q130.36 0.49 127.72-2.45 125.08-5.4 125.03-11.08L125.03-11.08 125.03-14.28Q125.03-20.19 127.61-23.55 130.19-26.9 134.8-26.9L134.8-26.9Q139.44-26.9 141.73-23.95 144.03-21 144.08-14.75L144.08-14.75 144.08-11.91 129.33-11.91 129.33-11.3Q129.33-7.06 130.93-5.13 132.53-3.2 135.53-3.2L135.53-3.2Q137.44-3.2 138.89-3.92 140.34-4.64 141.61-6.2L141.61-6.2 143.86-3.47Q141.05 0.49 135.29 0.49ZM134.8-23.19L134.8-23.19Q132.11-23.19 130.82-21.35 129.53-19.51 129.36-15.63L129.36-15.63 139.76-15.63 139.76-16.21Q139.58-19.97 138.4-21.58 137.22-23.19 134.8-23.19Z" opacity="1" transform="matrix(1,0,0,1,0,0)" fill="black" class="wordmark-text-0" id="SvgjsPath1144" stroke-width="5" stroke="black" stroke-linejoin="round"></path></svg></g></svg></g></svg></g></svg></g></svg></g></svg></g></svg></g></mask><g mask="url(#3aacba4b-8075-43de-9aa3-bd1f46df6d67)"><g><path xmlns="http://www.w3.org/2000/svg" d="M232.609 172.512v-172.529h30.801v172.666c0 23.37-5.945 41.64-17.836 54.811-11.891 13.171-27.874 19.757-47.951 19.757v0c-20.671 0-36.747-6.265-48.226-18.797-11.525-12.485-17.287-29.772-17.287-51.861v0h30.664c0 13.949 3.064 24.833 9.193 32.653 6.128 7.82 14.68 11.731 25.656 11.731v0c10.61 0 19.094-4.253 25.45-12.76 6.357-8.506 9.535-20.397 9.536-35.671z" fill="#39cccc" fill-rule="nonzero" stroke="none" stroke-width="1" stroke-linecap="butt" stroke-linejoin="miter" stroke-miterlimit="10" stroke-dasharray="" stroke-dashoffset="0" font-family="none" font-weight="none" font-size="none" text-anchor="none" style="mix-blend-mode: normal" data-fill-palette-color="tertiary"></path></g></g><g transform="matrix(1,0,0,1,0,53.33967698782995)"><svg viewBox="0 0 395.52 140.5206460243401" height="140.5206460243401" width="395.52"><g><svg viewBox="0 0 395.52 140.5206460243401" height="140.5206460243401" width="395.52"><g><svg viewBox="0 0 395.52 140.5206460243401" height="140.5206460243401" width="395.52"><g><svg viewBox="0 0 395.52 140.5206460243401" height="140.5206460243401" width="395.52"><g id="textblocktransform"><svg viewBox="0 0 395.52 140.5206460243401" height="140.5206460243401" width="395.52" id="textblock"><g><svg viewBox="0 0 395.52 140.5206460243401" height="140.5206460243401" width="395.52"><g transform="matrix(1,0,0,1,0,0)"><svg width="395.52" viewBox="-3.560000002384186 -40.5 150.63999938964844 54.16999816894531" height="140.5206460243401" data-palette-color="#39cccc"><path d="M3.32-26.42L7.64-26.42 7.64 3.32Q7.57 10.67 1.83 10.67L1.83 10.67Q0.51 10.67-0.54 10.23L-0.54 10.23-0.56 6.62Q0.1 6.81 1.12 6.81L1.12 6.81Q2.22 6.81 2.77 5.99 3.32 5.18 3.32 3.15L3.32 3.15 3.32-26.42ZM7.84-33.42L7.84-33.42Q7.84-32.32 7.23-31.59 6.62-30.86 5.37-30.86L5.37-30.86Q4.15-30.86 3.55-31.59 2.95-32.32 2.95-33.42 2.95-34.52 3.55-35.28 4.15-36.04 5.37-36.04 6.59-36.04 7.21-35.27 7.84-34.5 7.84-33.42ZM13.5-11.55L13.5-14.43Q13.5-20.19 16.29-23.55 19.09-26.9 23.68-26.9 28.27-26.9 31.06-23.63 33.86-20.36 33.93-14.72L33.93-14.72 33.93-11.94Q33.93-6.2 31.15-2.86 28.37 0.49 23.73 0.49L23.73 0.49Q19.14 0.49 16.37-2.76 13.6-6.01 13.5-11.55L13.5-11.55ZM17.82-14.45L17.82-11.94Q17.82-7.86 19.42-5.53 21.02-3.2 23.73-3.2L23.73-3.2Q29.44-3.2 29.61-11.45L29.61-11.45 29.61-14.43Q29.61-18.48 28-20.84 26.39-23.19 23.68-23.19L23.68-23.19Q21.02-23.19 19.42-20.84 17.82-18.48 17.82-14.45L17.82-14.45ZM58.64-14.55L58.64-11.94Q58.64-5.76 56.42-2.64 54.19 0.49 49.97 0.49L49.97 0.49Q45.77 0.49 43.67-3.13L43.67-3.13 43.45 0 39.52 0 39.52-37.5 43.82-37.5 43.82-23.51Q45.94-26.9 49.92-26.9L49.92-26.9Q54.27-26.9 56.44-23.83 58.61-20.75 58.64-14.55L58.64-14.55ZM54.34-11.74L54.34-14.4Q54.34-19.09 53.03-21.08 51.73-23.07 48.8-23.07L48.8-23.07Q45.45-23.07 43.82-19.46L43.82-19.46 43.82-6.88Q45.43-3.32 48.85-3.32L48.85-3.32Q51.78-3.32 53.05-5.37 54.32-7.42 54.34-11.74L54.34-11.74ZM76.99-6.76L76.99-6.76Q76.99-8.15 75.94-9.16 74.89-10.16 71.89-11.5L71.89-11.5Q68.4-12.94 66.97-13.96 65.54-14.99 64.84-16.3 64.13-17.6 64.13-19.41L64.13-19.41Q64.13-22.63 66.48-24.77 68.84-26.9 72.5-26.9L72.5-26.9Q76.36-26.9 78.7-24.66 81.05-22.41 81.05-18.9L81.05-18.9 76.75-18.9Q76.75-20.68 75.55-21.94 74.36-23.19 72.5-23.19L72.5-23.19Q70.6-23.19 69.51-22.2 68.43-21.22 68.43-19.56L68.43-19.56Q68.43-18.24 69.22-17.43 70.01-16.63 73.04-15.31L73.04-15.31Q77.85-13.43 79.58-11.63 81.32-9.84 81.32-7.08L81.32-7.08Q81.32-3.64 78.95-1.57 76.58 0.49 72.6 0.49L72.6 0.49Q68.47 0.49 65.91-1.88 63.35-4.25 63.35-7.89L63.35-7.89 67.69-7.89Q67.77-5.69 69.04-4.44 70.31-3.2 72.6-3.2L72.6-3.2Q74.75-3.2 75.87-4.16 76.99-5.13 76.99-6.76ZM100.5 0L100.41-2.32Q98.26 0.49 94.13 0.49L94.13 0.49Q90.54 0.49 88.71-1.99 86.88-4.47 86.86-9.2L86.86-9.2 86.86-26.42 91.15-26.42 91.15-9.52Q91.15-3.34 94.86-3.34L94.86-3.34Q98.79-3.34 100.28-6.86L100.28-6.86 100.28-26.42 104.6-26.42 104.6 0 100.5 0ZM121.98-26.56L122.01-22.36Q121.11-22.53 120.06-22.53L120.06-22.53Q116.74-22.53 115.42-18.9L115.42-18.9 115.42 0 111.1 0 111.1-26.42 115.3-26.42 115.37-23.73Q117.1-26.9 120.28-26.9L120.28-26.9Q121.3-26.9 121.98-26.56L121.98-26.56ZM135.29 0.49L135.29 0.49Q130.36 0.49 127.72-2.45 125.08-5.4 125.03-11.08L125.03-11.08 125.03-14.28Q125.03-20.19 127.61-23.55 130.19-26.9 134.8-26.9L134.8-26.9Q139.44-26.9 141.73-23.95 144.03-21 144.08-14.75L144.08-14.75 144.08-11.91 129.33-11.91 129.33-11.3Q129.33-7.06 130.93-5.13 132.53-3.2 135.53-3.2L135.53-3.2Q137.44-3.2 138.89-3.92 140.34-4.64 141.61-6.2L141.61-6.2 143.86-3.47Q141.05 0.49 135.29 0.49ZM134.8-23.19L134.8-23.19Q132.11-23.19 130.82-21.35 129.53-19.51 129.36-15.63L129.36-15.63 139.76-15.63 139.76-16.21Q139.58-19.97 138.4-21.58 137.22-23.19 134.8-23.19Z" opacity="1" transform="matrix(1,0,0,1,0,0)" fill="#39cccc" class="wordmark-text-0" data-fill-palette-color="primary" id="text-0"></path></svg></g></svg></g></svg></g></svg></g></svg></g></svg></g></svg></g></svg></g><defs></defs></svg><rect width="395.52" height="247.2" fill="none" stroke="none" visibility="hidden"></rect></g></svg></g></svg>